<svg id="图层_1" data-name="图层 1" xmlns="http://www.w3.org/2000/svg" viewBox="0 0 20 20"><defs><style>.cls-1,.cls-2{fill:#999;}.cls-1{fill-opacity:0;}</style></defs><title>所有</title><g id="页面-1"><g id="icon-_-Logo2" data-name="icon-&amp;-Logo2"><g id="icon_selected_Android" data-name="icon/selected/Android"><rect class="cls-1" width="20" height="20"/><path id="Combined-Shape" class="cls-2" d="M13.24,3.44A4.66,4.66,0,0,1,14.9,7H5.76A4.68,4.68,0,0,1,7.41,3.46L6.47,1.8a.25.25,0,0,1,.21-.37.24.24,0,0,1,.21.12l.91,1.6a4.51,4.51,0,0,1,5,0l.9-1.59a.24.24,0,0,1,.33-.09.25.25,0,0,1,.09.34Zm-5,2a.55.55,0,1,0-.54-.55.55.55,0,0,0,.54.55Zm4,0a.55.55,0,1,0-.54-.55A.55.55,0,0,0,12.3,5.46ZM5.76,7.57h9.15v6.9a1.47,1.47,0,0,1-.42,1,1.42,1.42,0,0,1-1,.43h-.37v2.55a.8.8,0,1,1-1.61,0V15.92H9.07v2.55a.8.8,0,1,1-1.61,0V15.92H7.19a1.42,1.42,0,0,1-1-.43,1.47,1.47,0,0,1-.42-1Zm10.58,5.34a.81.81,0,0,1-.8-.81V8.39a.8.8,0,1,1,1.61,0v3.7A.81.81,0,0,1,16.34,12.91Zm-12-5.34a.81.81,0,0,1,.8.82v3.71a.8.8,0,1,1-1.61,0V8.39A.81.81,0,0,1,4.37,7.57Z"/></g></g></g></svg>