<svg id="图层_1" data-name="图层 1" xmlns="http://www.w3.org/2000/svg" viewBox="0 0 20 20"><defs><style>.cls-1{fill:#d8d8d8;fill-opacity:0;}.cls-2{fill:#999;}.cls-3{fill:#fff;}</style></defs><title>所有</title><g id="页面-1"><g id="icon-_-Logo2" data-name="icon-&amp;-Logo2"><g id="icon_gray_Electron" data-name="icon/gray/Electron"><rect class="cls-1" width="20" height="20"/><g id="Electron_Software_Framework_Logo" data-name="Electron Software Framework Logo"><circle id="椭圆形" class="cls-2" cx="10" cy="10" r="8.57"/><g id="编组"><path id="形状" class="cls-3" d="M8.16,6.23c-1.74-.32-3.12,0-3.67,1a2.66,2.66,0,0,0,.28,2.65.18.18,0,1,0,.31-.18,2.33,2.33,0,0,1-.28-2.3c.46-.79,1.68-1.09,3.29-.79a.18.18,0,0,0,.06-.35ZM5.68,11.07a11.17,11.17,0,0,0,2.66,2.1c2.53,1.46,5.22,1.85,6.54.94a.18.18,0,1,0-.2-.3c-1.19.81-3.74.44-6.16-1a10.82,10.82,0,0,1-2.58-2,.18.18,0,1,0-.26.24Z"/><path id="形状-2" data-name="形状" class="cls-3" d="M14.46,10.85c1.14-1.35,1.54-2.7,1-3.65a2.63,2.63,0,0,0-2.39-1.08.18.18,0,0,0,0,.36,2.3,2.3,0,0,1,2.08.9c.45.79.1,2-1,3.24a.18.18,0,1,0,.27.23ZM11.53,6.29A11.15,11.15,0,0,0,8.35,7.55C5.74,9.06,4,11.28,4.28,12.89a.18.18,0,1,0,.35-.05c-.21-1.43,1.4-3.53,3.9-5a10.8,10.8,0,0,1,3.08-1.22.18.18,0,1,0-.07-.35Z"/><path id="形状-3" data-name="形状" class="cls-3" d="M7.31,14c.6,1.66,1.57,2.69,2.67,2.69a2.61,2.61,0,0,0,2.12-1.51.18.18,0,1,0-.31-.18A2.28,2.28,0,0,1,10,16.33c-.91,0-1.78-.91-2.33-2.45a.18.18,0,1,0-.34.12Zm5.45-.33a11.21,11.21,0,0,0,.47-3.31c0-3-1-5.51-2.51-6.16a.18.18,0,0,0-.14.33c1.32.58,2.3,3,2.3,5.84a10.86,10.86,0,0,1-.46,3.2.18.18,0,1,0,.34.11Zm3.36-.17a.85.85,0,1,0-.85.85A.85.85,0,0,0,16.11,13.5Zm-.36,0a.5.5,0,1,1-.5-.5.5.5,0,0,1,.5.5Zm-11.08.85a.85.85,0,1,0-.85-.85A.85.85,0,0,0,4.68,14.36Zm0-.36a.5.5,0,1,1,.5-.5.5.5,0,0,1-.5.5Z"/><path id="形状-4" data-name="形状" class="cls-3" d="M10,5.07a.85.85,0,1,0-.85-.85.85.85,0,0,0,.85.85Zm0-.36a.5.5,0,1,1,.5-.5.5.5,0,0,1-.5.5ZM10.1,11a.62.62,0,1,1,.47-.74.62.62,0,0,1-.47.74Z"/></g></g></g></g></g></svg>