<svg id="图层_1" data-name="图层 1" xmlns="http://www.w3.org/2000/svg" viewBox="0 0 20 20"><defs><style>.cls-1{fill:#d8d8d8;fill-opacity:0;}.cls-2{fill:#999;}.cls-3{fill:#fff;}</style></defs><title>所有</title><g id="页面-1"><g id="icon-_-Logo2" data-name="icon-&amp;-Logo2"><g id="icon_gray_iOS" data-name="icon/gray/iOS"><rect class="cls-1" width="20" height="20"/><path id="路径" class="cls-2" d="M17.68,4.14a3.38,3.38,0,0,0-2.15-1.93A7,7,0,0,0,13.6,2H6.4a7,7,0,0,0-1.93.2A3.38,3.38,0,0,0,2.32,4.14,6.26,6.26,0,0,0,2,6.4V13.6a6.3,6.3,0,0,0,.32,2.27,3.38,3.38,0,0,0,2.15,1.93A7,7,0,0,0,6.4,18H13.6a7,7,0,0,0,1.93-.2,3.38,3.38,0,0,0,2.15-1.93A6.26,6.26,0,0,0,18,13.6V6.4A6.23,6.23,0,0,0,17.68,4.14Z"/><g id="编组"><g id="macOS"><path id="形状" class="cls-3" d="M8.61,12.93a2.46,2.46,0,0,1-2.5-2.77,2.46,2.46,0,0,1,2.5-2.77,2.46,2.46,0,0,1,2.5,2.77A2.46,2.46,0,0,1,8.61,12.93Zm0-4.86c-1.05,0-1.71.81-1.71,2.09s.66,2.09,1.71,2.09,1.71-.81,1.71-2.09S9.66,8.07,8.61,8.07Z"/><path id="路径-2" data-name="路径" class="cls-3" d="M13.67,12.93c-1.17,0-2-.61-2-1.58h.76c.06.55.59.92,1.32.92s1.2-.36,1.2-.86-.31-.69-1-.87l-.69-.17c-1-.25-1.44-.7-1.44-1.44,0-.91.8-1.54,1.93-1.54a1.71,1.71,0,0,1,1.91,1.55h-.76A1,1,0,0,0,13.7,8c-.67,0-1.13.34-1.13.84s.29.62,1,.8l.58.15c1.11.27,1.56.7,1.56,1.49,0,1-.79,1.62-2,1.62Z"/></g><path id="形状结合" class="cls-3" d="M5,8.64v4.25H4.2V8.64ZM4.61,7.2a.4.4,0,1,1-.4.4A.4.4,0,0,1,4.61,7.2Z"/></g></g></g></g></svg>