<svg id="图层_1" data-name="图层 1" xmlns="http://www.w3.org/2000/svg" viewBox="0 0 20 20"><defs><style>.cls-1{fill:#999;}</style></defs><title>所有</title><path class="cls-1" d="M9,5.4a.17.17,0,0,0-.15.1q0,.09-.08.09s0,0,0,0,.06-.12.18-.14Zm.83.13s-.06,0-.11-.06a.16.16,0,0,0-.17,0q.23-.1.3,0A.06.06,0,0,1,9.83,5.53ZM6.5,9.58a0,0,0,0,0-.06,0l0,.12a.56.56,0,0,1-.05.13L6.25,10q-.09.1,0,.11s.06,0,.12-.07a.48.48,0,0,0,.12-.17l0-.07,0-.06V9.6ZM14.61,13q0-.17-.52-.4l.07-.26a1.55,1.55,0,0,0,0-.25q0-.13,0-.2a.89.89,0,0,0,0-.21q0-.14,0-.18a1.38,1.38,0,0,0,0-.21l0-.19,0-.24-.05-.25a2.82,2.82,0,0,0-.45-1,2.24,2.24,0,0,0-.68-.71,2.75,2.75,0,0,1,.54.79A3.57,3.57,0,0,1,14,12.32a.49.49,0,0,1-.47.4q-.29,0-.37-.18a3,3,0,0,1-.08-.79,4.56,4.56,0,0,0-.11-1,6.25,6.25,0,0,0-.18-.65,2.63,2.63,0,0,0-.18-.43l-.15-.23-.12-.14-.07-.07a6.11,6.11,0,0,0-.29-1,2.25,2.25,0,0,0-.28-.53,2.63,2.63,0,0,1-.22-.31,1,1,0,0,1-.09-.89.83.83,0,0,0,0-.47q-.05-.16-.42-.24a1.86,1.86,0,0,1-.42-.17,2,2,0,0,0-.34-.15q-.08,0-.1-.25a.94.94,0,0,1,.08-.48.37.37,0,0,1,.34-.26.44.44,0,0,1,.48.28.71.71,0,0,1,0,.55q-.1.18,0,.25t.28,0,.12-.34V4.89a2.12,2.12,0,0,0-.13-.47.76.76,0,0,0-.2-.29A.87.87,0,0,0,10.9,4l-.26-.07Q9.63,4,9.8,5.18a.41.41,0,0,1,0,.14.43.43,0,0,0-.28-.1,1.41,1.41,0,0,0-.31,0q-.12,0-.15,0a1.81,1.81,0,0,0-.15-.85A.5.5,0,0,0,8.47,4a.41.41,0,0,0-.39.26,1.44,1.44,0,0,0-.16.56,1.35,1.35,0,0,0,0,.35,1.27,1.27,0,0,0,.12.36q.08.15.15.13a.26.26,0,0,0,.15-.13q0-.09-.07-.08s-.09,0-.15-.14A.69.69,0,0,1,8.07,5a.57.57,0,0,1,.09-.35.34.34,0,0,1,.32-.13.29.29,0,0,1,.26.2.81.81,0,0,1,.09.37,1.43,1.43,0,0,1,0,.21,1,1,0,0,0-.29.28.79.79,0,0,1-.26.22l-.19.12a.54.54,0,0,0-.15.26A.14.14,0,0,0,8,6.34a1,1,0,0,1,.24.18l.15.18a.37.37,0,0,0,.18.12,1,1,0,0,0,.34.06,2.87,2.87,0,0,0,1-.14l.22-.07.33-.1.28-.12a.48.48,0,0,0,.2-.17q.09-.13.19-.08a.13.13,0,0,1,.06.08.14.14,0,0,1,0,.11.26.26,0,0,1-.16.09,5.62,5.62,0,0,0-.54.2L10,6.89a2.93,2.93,0,0,1-.66.22,2.55,2.55,0,0,1-.75,0q-.09,0-.09,0a.71.71,0,0,0,.16.18.87.87,0,0,0,.64.21,1.41,1.41,0,0,0,.34-.07L10,7.3l.32-.17L10.56,7l.23-.11a.26.26,0,0,1,.17,0,.13.13,0,0,1,.08.1.12.12,0,0,1,0,0l0,0-.06,0-.08,0-.09,0-.09,0-.09,0a4.27,4.27,0,0,0-.64.42,3.92,3.92,0,0,1-.63.41.49.49,0,0,1-.46,0,2.37,2.37,0,0,1-.6-.69Q8,7.1,8,7.18a.33.33,0,0,0,0,.09,1.27,1.27,0,0,1-.14.54q-.14.3-.28.53a1.66,1.66,0,0,0-.2.55.81.81,0,0,0,.11.6q-.22.06-.59.85a4.9,4.9,0,0,0-.45,1.34q0,.17,0,.65a1.41,1.41,0,0,1-.05.56q-.08.23-.28,0A1.31,1.31,0,0,1,5.77,12a1.88,1.88,0,0,1,0-.53q0-.18,0-.17l0,0A1.72,1.72,0,0,0,5.85,13a.77.77,0,0,0,.24.27l.23.19a9.85,9.85,0,0,0,1,.86q.8.64.88.73a.52.52,0,0,1,.17.36.59.59,0,0,1-.56.63,4.35,4.35,0,0,0,.28.42,1.73,1.73,0,0,1,.27.51,2.57,2.57,0,0,1,.07.67q.44-.23.07-.87a.83.83,0,0,0-.1-.15l-.09-.11s0,0,0-.06a.27.27,0,0,1,.12-.09.18.18,0,0,1,.19,0,1.72,1.72,0,0,0,1.57.34,2.11,2.11,0,0,0,1.68-.83q.22-.36.32-.28t.09.49a4,4,0,0,1-.22.87.65.65,0,0,0-.06.36q0,.14.23.15,0-.18.14-.73a6.94,6.94,0,0,0,.13-.85,3.21,3.21,0,0,0-.06-.7,5.07,5.07,0,0,1-.07-.92,1,1,0,0,1,.22-.67.6.6,0,0,1,.48-.17.54.54,0,0,1,.33-.5,1.18,1.18,0,0,1,.69-.1A1.15,1.15,0,0,1,14.61,13Zm-6-7.84a.5.5,0,0,0,0-.28q-.05-.12-.11-.14t-.09.07a.09.09,0,0,0,0,.06q.09,0,.07.14t.08.19A0,0,0,0,0,8.65,5.14Zm4,1.87a.19.19,0,0,0-.06-.11.28.28,0,0,0-.12,0,.36.36,0,0,1-.14-.05l-.09-.08-.07-.08-.05-.06,0,0h0q-.13.15.07.41a.73.73,0,0,0,.37.3.14.14,0,0,0,.14-.08A.26.26,0,0,0,12.63,7ZM10.94,5a.37.37,0,0,0-.15-.3s-.07,0-.09,0l-.08,0a0,0,0,0,0,0,0l0,0q.13,0,.17.29s0,0,.08,0Zm.51-2.21a.08.08,0,0,0,0,0l-.09-.07-.09-.06A.39.39,0,0,0,11,2.47a.12.12,0,0,0-.11.07.21.21,0,0,0,0,.12.22.22,0,0,1,0,.12.3.3,0,0,1-.06.1L10.78,3s0,0,0,.08a.06.06,0,0,0,.08,0L11,3a.47.47,0,0,1,.14-.09h.09l.14,0A.12.12,0,0,0,11.45,2.78ZM16.81,15.5a1.24,1.24,0,0,1,.29.23.41.41,0,0,1,.11.23.54.54,0,0,1,0,.21.5.5,0,0,1-.15.21l-.22.18-.28.18-.3.16-.3.15-.26.12a5,5,0,0,0-.81.53,9.23,9.23,0,0,0-.72.61,1.09,1.09,0,0,1-.65.18,1.68,1.68,0,0,1-.84-.14.82.82,0,0,1-.28-.22,1.22,1.22,0,0,1-.16-.24.42.42,0,0,0-.21-.18,1.1,1.1,0,0,0-.45-.09H9.8l-.55,0a2.18,2.18,0,0,0-.75.14,1.72,1.72,0,0,0-.51.28,1.83,1.83,0,0,1-.41.27,1.05,1.05,0,0,1-.51.11A4.32,4.32,0,0,1,6,18.16a9.75,9.75,0,0,0-1.38-.41l-.48-.09-.47-.09-.37-.09A1,1,0,0,1,3,17.35a.47.47,0,0,1-.16-.18.86.86,0,0,1,.07-.63A2.83,2.83,0,0,0,3.05,16a1.47,1.47,0,0,0,0-.38q0-.23-.09-.4a1.19,1.19,0,0,1,0-.35.34.34,0,0,1,.1-.26,1,1,0,0,1,.54-.13,1.34,1.34,0,0,0,.57-.11,1.31,1.31,0,0,0,.4-.33.84.84,0,0,0,.11-.48.8.8,0,0,1-.3,1,1.23,1.23,0,0,1-.79.14q-.32,0-.41.09t0,.54l.08.17.08.17a.82.82,0,0,1,0,.16.77.77,0,0,1,0,.21,1.24,1.24,0,0,1-.16.46.84.84,0,0,0-.13.46q0,.16.35.25t.8.18l.94.19.7.21q.47.15.78.22a1.58,1.58,0,0,0,.53,0,1,1,0,0,0,.61-.27A.7.7,0,0,0,8,17.34a1.72,1.72,0,0,0-.07-.55,2.67,2.67,0,0,0-.18-.49l-.19-.35A20.11,20.11,0,0,0,6,13.65q-.65-.7-1.07-.38-.1.09-.14-.14a1.59,1.59,0,0,1,0-.36,1.49,1.49,0,0,1,.09-.49A2.7,2.7,0,0,1,5,11.83a2.46,2.46,0,0,0,.21-.4l.25-.68q.18-.48.28-.74a5.34,5.34,0,0,1,.28-.58,2.33,2.33,0,0,1,.37-.51A7.31,7.31,0,0,0,7.62,7.07Q7.5,6,7.46,4.13a3.49,3.49,0,0,1,.23-1.44,2.12,2.12,0,0,1,2-1.19,3.54,3.54,0,0,1,1,.13,2.49,2.49,0,0,1,.84.39,2.75,2.75,0,0,1,.87,1.15,3,3,0,0,1,.28,1.4,6.12,6.12,0,0,0,.28,2,5.24,5.24,0,0,0,1.26,2.07,5.34,5.34,0,0,1,.94,1.55A8.21,8.21,0,0,1,15.74,12a3.33,3.33,0,0,1,0,.8,1.66,1.66,0,0,1-.11.53q-.09.19-.19.21a.45.45,0,0,0-.22.18l-.26.34a1.17,1.17,0,0,1-.38.32,1.1,1.1,0,0,1-.58.13,1.31,1.31,0,0,1-.3,0,.47.47,0,0,1-.21-.13l-.13-.15a1.28,1.28,0,0,1-.11-.19l-.09-.18q-.21-.35-.39-.28t-.27.46a1.89,1.89,0,0,0,.07.92,4.55,4.55,0,0,1,0,1.85,1.2,1.2,0,0,0,.17,1,.78.78,0,0,0,.69.31,1.37,1.37,0,0,0,.81-.34,6.88,6.88,0,0,1,.85-.63,6.23,6.23,0,0,1,1-.4,2.63,2.63,0,0,0,.73-.35q.23-.18.18-.33a.54.54,0,0,0-.24-.27,2.31,2.31,0,0,0-.49-.22.78.78,0,0,1-.47-.46,1.52,1.52,0,0,1-.14-.69.62.62,0,0,1,.15-.45,2.31,2.31,0,0,0,.08.54,2.17,2.17,0,0,0,.14.38,1.1,1.1,0,0,0,.19.27,1.44,1.44,0,0,0,.2.18l.2.12Z"/></svg>