<svg id="图层_1" data-name="图层 1" xmlns="http://www.w3.org/2000/svg" viewBox="0 0 20 20"><defs><style>.cls-1{fill:#999;}.cls-2{fill:#fff;}</style></defs><title>所有</title><path id="路径" class="cls-1" d="M17.68,4.14a3.38,3.38,0,0,0-2.15-1.93A7,7,0,0,0,13.6,2H6.4a7,7,0,0,0-1.93.2A3.38,3.38,0,0,0,2.32,4.14,6.26,6.26,0,0,0,2,6.4V13.6a6.3,6.3,0,0,0,.32,2.27,3.38,3.38,0,0,0,2.15,1.93A7,7,0,0,0,6.4,18H13.6a7,7,0,0,0,1.93-.2,3.38,3.38,0,0,0,2.15-1.93A6.26,6.26,0,0,0,18,13.6V6.4A6.23,6.23,0,0,0,17.68,4.14Z"/><g id="编组"><g id="macOS"><path id="形状" class="cls-2" d="M7.7,15.55a2.46,2.46,0,0,1-2.5-2.77A2.46,2.46,0,0,1,7.7,10a2.46,2.46,0,0,1,2.5,2.77A2.46,2.46,0,0,1,7.7,15.55Zm0-4.86c-1.05,0-1.71.81-1.71,2.09s.66,2.09,1.71,2.09,1.71-.81,1.71-2.09-.66-2.09-1.71-2.09Z"/><path id="路径-2" data-name="路径" class="cls-2" d="M12.75,15.55c-1.17,0-2-.61-2-1.58h.76c.06.55.59.92,1.32.92S14,14.52,14,14s-.31-.69-1-.87L12.32,13c-1-.25-1.44-.7-1.44-1.44,0-.91.8-1.54,1.93-1.54a1.71,1.71,0,0,1,1.91,1.55H14a1,1,0,0,0-1.17-.89c-.67,0-1.13.34-1.13.84s.29.62,1,.8l.58.15c1.11.27,1.56.7,1.56,1.49,0,1-.79,1.62-2,1.62Z"/></g></g><path class="cls-2" d="M5.53,8V5.39h.39v.36a.92.92,0,0,1,.32-.31.91.91,0,0,1,.46-.12.86.86,0,0,1,.47.12.64.64,0,0,1,.26.33.93.93,0,0,1,.8-.45.79.79,0,0,1,.59.21A.91.91,0,0,1,9,6.2V8H8.61V6.35a1.2,1.2,0,0,0,0-.38.37.37,0,0,0-.16-.19.49.49,0,0,0-.26-.07.61.61,0,0,0-.45.18.8.8,0,0,0-.18.58V8H7.07V6.3A.74.74,0,0,0,7,5.86a.41.41,0,0,0-.35-.15.63.63,0,0,0-.34.1A.55.55,0,0,0,6,6.1,1.62,1.62,0,0,0,6,6.64V8Z"/><path class="cls-2" d="M11.39,7.66a1.63,1.63,0,0,1-.47.29,1.35,1.35,0,0,1-.49.09.94.94,0,0,1-.66-.21.69.69,0,0,1-.23-.53.73.73,0,0,1,.31-.6,1.09,1.09,0,0,1,.32-.14l.39-.07a4.05,4.05,0,0,0,.78-.15c0-.06,0-.1,0-.12a.49.49,0,0,0-.12-.38.74.74,0,0,0-.5-.15.77.77,0,0,0-.46.11.66.66,0,0,0-.22.38l-.43-.06a1.06,1.06,0,0,1,.19-.45.84.84,0,0,1,.39-.26,1.72,1.72,0,0,1,.59-.09,1.54,1.54,0,0,1,.54.08.71.71,0,0,1,.31.2.69.69,0,0,1,.14.3,2.46,2.46,0,0,1,0,.41V6.9a6.31,6.31,0,0,0,0,.78,1,1,0,0,0,.11.31h-.46A.92.92,0,0,1,11.39,7.66Zm0-1a3.16,3.16,0,0,1-.72.17,1.69,1.69,0,0,0-.38.09.38.38,0,0,0-.17.14.39.39,0,0,0,.07.5.57.57,0,0,0,.39.12A.91.91,0,0,0,11,7.59a.68.68,0,0,0,.29-.3,1.06,1.06,0,0,0,.07-.44Z"/><path class="cls-2" d="M14.17,7l.43.06a1.12,1.12,0,0,1-.36.7,1.05,1.05,0,0,1-.72.25,1.12,1.12,0,0,1-.86-.35,1.41,1.41,0,0,1-.32-1A1.82,1.82,0,0,1,12.48,6a1,1,0,0,1,.42-.47,1.26,1.26,0,0,1,.62-.16,1.08,1.08,0,0,1,.69.21,1,1,0,0,1,.34.61l-.43.07a.7.7,0,0,0-.22-.39.56.56,0,0,0-.37-.13.68.68,0,0,0-.54.24,1.13,1.13,0,0,0-.21.75,1.16,1.16,0,0,0,.2.76.65.65,0,0,0,.52.24.61.61,0,0,0,.43-.16A.79.79,0,0,0,14.17,7Z"/></svg>