<svg id="图层_1" data-name="图层 1" xmlns="http://www.w3.org/2000/svg" viewBox="0 0 20 20"><defs><style>.cls-1,.cls-2{fill:#38d678;}.cls-1{fill-opacity:0;}</style></defs><title>所有</title><g id="页面-1"><g id="icon-_-Logo2" data-name="icon-&amp;-Logo2"><g id="icon_gray_小程序" data-name="icon/gray/小程序"><rect class="cls-1" width="20" height="20"/><path id="Shape" class="cls-2" d="M10,1.43a8.57,8.57,0,1,0,6.06,2.51A8.57,8.57,0,0,0,10,1.43Zm2.86,9.2a.71.71,0,0,1-.87-.36c-.16-.34,0-.59.31-.79a2.24,2.24,0,0,1,.37-.2c.57-.33,1-.76.76-1.43A1.3,1.3,0,0,0,11.9,7.1a1.21,1.21,0,0,0-1.18,1.24V11.9a2.86,2.86,0,0,1-2.86,2.47,2.86,2.86,0,0,1-2.64-3c0-.83.77-1.43,1.79-1.94.43-.13.86-.13,1.08.3s-.2.74-.57.91c-.76.33-1.13.86-.77,1.63a1.33,1.33,0,0,0,1.79.63,1.26,1.26,0,0,0,.84-1.36V8.3a2.49,2.49,0,0,1,1.8-2.53,3,3,0,0,1,3.14.82,2.61,2.61,0,0,1-1.43,4h0Z"/></g></g></g></svg>