<svg id="图层_1" data-name="图层 1" xmlns="http://www.w3.org/2000/svg" viewBox="0 0 20 20"><defs><style>.cls-1{fill:#d8d8d8;fill-opacity:0;}.cls-2{fill:#777;}.cls-3{fill:#fff;}</style></defs><title>所有</title><g id="页面-1"><g id="icon-_-Logo2" data-name="icon-&amp;-Logo2"><g id="icon_gray_ReactNative" data-name="icon/gray/ReactNative"><rect class="cls-1" width="20" height="20"/><circle id="椭圆形" class="cls-2" cx="10" cy="10" r="8.57"/><g id="React-icon"><path id="形状" class="cls-3" d="M16.41,10c0-.85-1.06-1.65-2.69-2.15.38-1.66.21-3-.53-3.41a1.15,1.15,0,0,0-.59-.15v.58a.61.61,0,0,1,.3.07c.36.2.51,1,.39,2,0,.25-.08.5-.13.77A12.66,12.66,0,0,0,11.5,7.4a12.75,12.75,0,0,0-1.09-1.31,3.85,3.85,0,0,1,2.2-1.23V4.29h0A4.37,4.37,0,0,0,10,5.69,4.37,4.37,0,0,0,7.38,4.3v.58A3.87,3.87,0,0,1,9.58,6.1,12.34,12.34,0,0,0,8.5,7.4a12.2,12.2,0,0,0-1.66.29c-.06-.26-.1-.51-.14-.76-.12-1,0-1.77.38-2a.58.58,0,0,1,.3-.07V4.3h0a1.17,1.17,0,0,0-.59.15c-.73.42-.9,1.74-.52,3.4-1.63.5-2.68,1.3-2.68,2.15s1.06,1.65,2.69,2.15c-.38,1.66-.21,3,.53,3.41a1.15,1.15,0,0,0,.59.15A4.37,4.37,0,0,0,10,14.3a4.37,4.37,0,0,0,2.61,1.39,1.17,1.17,0,0,0,.59-.15c.73-.42.9-1.74.52-3.4C15.35,11.65,16.41,10.84,16.41,10ZM13,8.25c-.1.34-.22.68-.35,1-.11-.21-.22-.42-.34-.63s-.25-.41-.38-.61C12.31,8.1,12.67,8.17,13,8.25ZM11.81,11c-.2.35-.41.69-.63,1-.39,0-.78.05-1.18.05s-.79,0-1.18,0q-.33-.47-.63-1t-.54-1c.16-.35.34-.7.54-1s.41-.69.63-1c.39,0,.78-.05,1.18-.05s.79,0,1.18,0q.33.47.63,1t.54,1C12.19,10.34,12,10.69,11.81,11Zm.84-.34c.14.35.26.7.36,1-.34.08-.7.15-1.08.21.13-.2.26-.41.38-.62S12.55,10.91,12.66,10.7ZM10,13.48a10.77,10.77,0,0,1-.73-.84l.72,0,.73,0A10.2,10.2,0,0,1,10,13.48ZM8.06,11.95c-.37-.05-.73-.12-1.07-.21.1-.34.22-.68.35-1,.11.21.22.42.34.63ZM10,6.51a10.77,10.77,0,0,1,.73.84l-.72,0-.73,0A10.2,10.2,0,0,1,10,6.51ZM8.06,8c-.13.2-.26.41-.38.62s-.23.42-.34.63c-.14-.35-.26-.7-.36-1C7.32,8.17,7.68,8.1,8.06,8ZM5.69,11.32c-.93-.39-1.52-.91-1.52-1.32s.6-.93,1.52-1.32c.22-.1.47-.18.72-.26A12.55,12.55,0,0,0,7,10a12.37,12.37,0,0,0-.58,1.58C6.17,11.5,5.92,11.41,5.69,11.32ZM7.1,15.05c-.36-.2-.51-1-.39-2,0-.25.08-.5.13-.77a12.66,12.66,0,0,0,1.66.28A12.75,12.75,0,0,0,9.59,13.9a3.85,3.85,0,0,1-2.2,1.23A.62.62,0,0,1,7.1,15.05Zm6.2-2c.12,1,0,1.77-.38,2a.58.58,0,0,1-.3.07,3.87,3.87,0,0,1-2.2-1.22,12.34,12.34,0,0,0,1.08-1.3,12.2,12.2,0,0,0,1.66-.29A7.32,7.32,0,0,1,13.3,13.06Zm1-1.74c-.22.1-.47.18-.72.26A12.55,12.55,0,0,0,13,10a12.37,12.37,0,0,0,.58-1.58c.26.08.5.17.73.27.93.39,1.52.91,1.52,1.32S15.23,10.93,14.3,11.32Z"/><circle id="椭圆形-2" data-name="椭圆形" class="cls-3" cx="10" cy="10" r="1.19"/></g></g></g></g></svg>