<svg id="图层_1" data-name="图层 1" xmlns="http://www.w3.org/2000/svg" viewBox="0 0 20 20"><defs><style>.cls-1{fill:#999;}</style></defs><title>所有</title><g id="chrome-_1_备份" data-name="chrome-(1)备份"><path id="路径" class="cls-1" d="M3.55,4.46a8.5,8.5,0,0,1,14,1.68H11a5.51,5.51,0,0,0-2.78.41,3.93,3.93,0,0,0-2,2.58L3.55,4.46Z"/><path id="路径-2" data-name="路径" class="cls-1" d="M7.17,10A2.82,2.82,0,1,0,10,7.17,2.83,2.83,0,0,0,7.17,10Z"/><path id="路径-3" data-name="路径" class="cls-1" d="M11.09,13.7a3.81,3.81,0,0,1-4.46-1.81C5.86,10.55,3.81,7,2.88,5.36a8.51,8.51,0,0,0,5.47,13l2.74-4.64Z"/><path id="路径-4" data-name="路径" class="cls-1" d="M12.62,7.17a3.87,3.87,0,0,1,.71,4.76c-.67,1.16-2.82,4.79-3.87,6.55A8.51,8.51,0,0,0,18,7.17H12.62Z"/></g></svg>