<svg id="图层_1" data-name="图层 1" xmlns="http://www.w3.org/2000/svg" viewBox="0 0 20 20"><defs><style>.cls-1{fill:#ea4335;}.cls-2{fill:#4285f4;}.cls-3{fill:#34a853;}.cls-4{fill:#fbbc05;}</style></defs><title>所有</title><path class="cls-1" d="M3.55,4.82a8.5,8.5,0,0,1,14,1.68H11a5.51,5.51,0,0,0-2.78.41,3.93,3.93,0,0,0-2,2.58L3.55,4.82Z"/><path class="cls-2" d="M7.17,10.36A2.82,2.82,0,1,0,10,7.53,2.83,2.83,0,0,0,7.17,10.36Z"/><path class="cls-3" d="M11.09,14.06a3.81,3.81,0,0,1-4.46-1.81c-.78-1.34-2.83-4.91-3.76-6.53a8.51,8.51,0,0,0,5.47,13l2.74-4.64Z"/><path class="cls-4" d="M12.62,7.53a3.87,3.87,0,0,1,.71,4.76c-.67,1.16-2.82,4.79-3.87,6.55A8.51,8.51,0,0,0,18,7.53H12.62Z"/></svg>