<svg id="图层_1" data-name="图层 1" xmlns="http://www.w3.org/2000/svg" viewBox="0 0 20 20"><defs><style>.cls-1{fill:#4285f4;}</style></defs><title>所有</title><path class="cls-1" d="M17.1,7a7.66,7.66,0,0,0,.67-2.75C17.76,2,15.27,1.17,11.21,3A7.39,7.39,0,0,0,3.8,8.87,12.86,12.86,0,0,1,7.62,5.71a20.59,20.59,0,0,0-4.24,5.41A10.94,10.94,0,0,0,2,15.65c0,3.08,2.9,2.7,5.63,1.31a7.07,7.07,0,0,0,3.18.49,7,7,0,0,0,6.78-4.56H13.81c-1.64,2.77-6.15,1.66-6.15-1.48H17.94A7.17,7.17,0,0,0,17.1,7ZM4,12.84a7.28,7.28,0,0,0,3.13,3.85C4.38,18.22,1.73,17.6,4,12.84Zm3.63-3.4a3.17,3.17,0,0,1,3.25-3,3.18,3.18,0,0,1,3.25,3Zm5.77-5.86a5.72,5.72,0,0,1,2.27-.69,1.62,1.62,0,0,1,1.7,1.68,6.94,6.94,0,0,1-.46,2.12A7.62,7.62,0,0,0,13.41,3.57Z"/></svg>